<?xml version="1.0" standalone="no"?>
<!DOCTYPE svg PUBLIC "-//W3C//DTD SVG 1.1//EN" "http://www.w3.org/Graphics/SVG/1.1/DTD/svg11.dtd" >
<!--
2013-9-30: Created.
-->
<svg>
<metadata>
Created by iconfont
</metadata>
<defs>

<font id="iconfont" horiz-adv-x="1024" >
  <font-face
    font-family="iconfont"
    font-weight="500"
    font-stretch="normal"
    units-per-em="1024"
    ascent="896"
    descent="-128"
  />
    <missing-glyph />
    
    <glyph glyph-name="subtract" unicode="&#59134;" d="M853.333333 362.666667C865.115407 362.666667 874.666667 372.217925 874.666667 384 874.666667 395.782075 865.115407 405.333333 853.333333 405.333333L170.666667 405.333333C158.884592 405.333333 149.333333 395.782075 149.333333 384 149.333333 372.217925 158.884592 362.666667 170.666667 362.666667L853.333333 362.666667Z"  horiz-adv-x="1024" />

    
    <glyph glyph-name="cog" unicode="&#59416;" d="M903.232 333.82399999999996c2.432 21.824 3.648 38.592 3.648 50.176 0 17.408-1.6 33.792-3.648 50.176l120.64 102.656-113.664 204.544-158.08-52.736a387.328 387.328 0 0 1-88.96 50.176L633.92 896H396.352l-35.328-157.184c-32.064-12.8-61.568-30.208-88.96-50.176l-155.84 52.736L0.192 536.832 120.96 434.176c-2.112-16.384-3.712-33.28-3.712-50.176s1.6-33.792 3.712-50.176L12.544 238.91200000000003 128 29.18399999999997l144 50.176c27.392-20.48 56.896-37.376 88.96-50.176L394.688-128h239.232l29.248 157.184c32.128 12.8 61.568 30.208 88.96 50.176l145.216-50.176 125.12 209.728-119.232 94.912z m-104.256 87.552c2.112-15.872 2.624-26.624 2.624-37.376 0-10.752-1.024-22.016-2.56-37.376l-7.424-57.856 46.848-35.84 56.832-43.008-36.864-61.952-66.816 26.112-54.72 21.504-47.36-34.816a310.4 310.4 0 0 0-65.856-37.376l-55.744-22.016-8.448-57.856-10.496-69.12H475.264l-9.984 69.12-8.448 57.856-55.808 22.016a300.8 300.8 0 0 0-64.704 36.352l-47.936 35.84-55.744-22.016-66.88-26.112-36.864 61.952 56.896 43.008 46.848 35.84-7.36 57.856A400.768 400.768 0 0 0 222.592 384c0 10.24 1.088 22.016 2.688 37.376l7.36 57.856-46.848 35.84-56.896 43.008 36.864 61.952 66.88-26.112 54.72-21.504 47.36 34.816a310.4 310.4 0 0 0 65.792 37.376l55.808 22.016 8.448 57.856 10.496 69.12H548.48l10.048-69.12 8.384-57.856 55.808-22.016a300.8 300.8 0 0 0 64.768-36.352l47.872-35.84 55.808 22.016 66.816 26.112 36.864-61.952-56.32-43.52-46.848-35.84 7.36-57.856zM512 576a192 192 0 1 1 0-384 192 192 0 1 1 0 384z m0-288c-52.8 0-96 43.2-96 96S459.2 480 512 480s96-43.2 96-96S564.8 288 512 288z"  horiz-adv-x="1024" />

    
    <glyph glyph-name="redo" unicode="&#59441;" d="M1019.880673 448.550313l0.063994-0.511956h-132.468657l-0.063995 0.511956H572.750958l208.110181 206.382328A383.967123 383.967123 0 1 1 870.965424 256.054795h136.820284a511.956164 511.956164 0 1 0-134.388493 490.581994L1023.912328 896v-447.449687h-4.031655z"  horiz-adv-x="1024" />

    
    <glyph glyph-name="arrow-right" unicode="&#59456;" d="M760.768 320L384-35.84 469.76-128 1024 380.608 474.048 896 384 797.12 753.6 448H0v-128h760.768z"  horiz-adv-x="1024" />

    
    <glyph glyph-name="arrow-left" unicode="&#59457;" d="M263.232 320L640-35.84 554.24-128 0 380.608 549.952 896 640 797.12 270.4 448H1024v-128H263.232z"  horiz-adv-x="1024" />

    
    <glyph glyph-name="wind-loading" unicode="&#59497;" d="M512 682.688c-25.6 0-42.688 17.024-42.688 42.624v128C469.312 878.912 486.4 896 512 896s42.688-17.088 42.688-42.688v-128c0-25.6-17.088-42.624-42.688-42.624zM512-128c-25.6 0-42.688 17.088-42.688 42.688v128c0 25.6 17.088 42.624 42.688 42.624s42.688-17.024 42.688-42.624v-128c0-25.6-17.088-42.688-42.688-42.688zM170.688 341.312h-128C17.088 341.312 0 358.4 0 384s17.088 42.688 42.688 42.688h128c25.6 0 42.624-17.088 42.624-42.688s-17.024-42.688-42.624-42.688z m810.624 0h-128c-25.6 0-42.624 17.088-42.624 42.688s17.024 42.688 42.624 42.688h128c25.6 0 42.688-17.088 42.688-42.688s-17.088-42.688-42.688-42.688zM806.4 512a50.88 50.88 0 0 0-38.4 21.312c-12.8 21.376-4.288 46.976 17.088 59.776l110.912 64c21.312 12.8 46.912 4.224 59.712-17.088 12.8-21.312 4.288-46.912-17.024-59.712l-110.976-64C823.488 512 814.912 512 806.4 512zM106.688 106.688a50.88 50.88 0 0 0-38.4 21.312c-12.8 21.312-4.288 46.912 17.024 59.712l110.976 64c21.312 12.8 46.912 4.288 59.712-17.024 12.8-21.376 4.288-46.976-17.088-59.776l-110.912-64c-8.512-4.224-17.088-4.224-21.312-4.224z m576 529.024c-8.576 0-12.8 0-21.376 4.288-21.312 12.8-25.6 38.4-17.024 59.712l64 110.976c12.8 21.312 38.4 25.6 59.712 17.024 21.312-12.8 25.6-38.4 17.088-59.712l-64-110.912c-8.576-12.8-25.6-21.376-38.4-21.376zM277.312-64c-8.512 0-12.8 0-21.312 4.288-21.312 12.8-25.6 38.4-17.088 59.712l64 110.912c12.8 17.088 38.4 25.6 59.776 12.8 21.312-12.8 25.6-38.4 17.024-59.712l-64-106.688c-8.512-12.8-25.6-21.312-38.4-21.312zM217.6 512c-8.512 0-17.088 0-21.312 4.288l-110.976 64C64 593.088 55.488 618.688 68.288 640c12.8 21.312 38.4 25.6 59.712 17.088l110.912-64c21.376-12.8 25.6-38.4 12.8-59.776C247.488 520.512 230.4 512 217.6 512z m699.712-405.312c-8.512 0-12.8 0-21.312 4.224l-110.912 64c-21.376 12.8-25.6 38.4-17.088 59.776 12.8 21.312 38.4 25.6 59.712 17.024l110.976-64c21.312-12.8 25.6-38.4 17.024-59.712a44.8 44.8 0 0 0-38.4-21.312z m-576 529.024a50.88 50.88 0 0 0-38.4 21.376L238.912 768c-8.512 21.312-4.224 46.912 17.088 59.712 21.312 12.8 46.912 4.288 59.712-17.024l64-110.976c8.576-21.312 4.288-46.912-17.024-55.424-8.576-4.288-12.8-8.576-21.376-8.576zM746.688-64a50.88 50.88 0 0 0-38.4 21.312l-64 110.976c-12.8 21.312-4.288 46.912 17.024 59.712 21.376 12.8 46.976 4.288 59.776-17.088l64-110.912c12.8-21.312 4.224-46.912-17.088-59.712-8.512-4.288-12.8-4.288-21.312-4.288z"  horiz-adv-x="1024" />

    
    <glyph glyph-name="menu" unicode="&#59500;" d="M64 832h896v-128H64V832z m0-768h896v-128H64v128z m0 384h896v-128H64V448z"  horiz-adv-x="1024" />

    
    <glyph glyph-name="window-close-symbolic" unicode="&#58966;" d="M207.631111 726.60419l-38.235301-38.235301 6.365333-6.322032L308.177397 549.587302 175.804444 417.127746l-6.365333-6.322032 38.235302-38.235301 6.322031 6.365333L346.412698 511.352l132.459556-132.416254 6.322032-6.365333 38.235301 38.235301-6.365333 6.322032L384.648 549.587302l132.416254 132.459555 6.365333 6.322032-38.235301 38.235301-6.322032-6.365333L346.412698 587.822603 213.953143 720.195556z"  horiz-adv-x="1513" />

    
    <glyph glyph-name="window-maximize-symbolic" unicode="&#58967;" d="M170.666667 725.333333v-341.333333h341.333333V725.333333z m42.666666-42.666666h256v-256H213.333333z"  horiz-adv-x="1536" />

    
    <glyph glyph-name="list-add-symbolic" unicode="&#58970;" d="M402.285714 736v-251.428571H150.857143v-50.285715h251.428571v-251.428571h50.285715V434.285714h251.428571V484.571429H452.571429V748.571429z"  horiz-adv-x="1274" />

    
    <glyph glyph-name="go-home-symbolic" unicode="&#58973;" d="M912.6656 582.250667V707.7504h-125.625233zM159.6672 456.750933v-501.998933h564.7488v62.749867H222.417067V498.605094z m690.374033 62.749867L849.915733-45.248h62.749867V456.750933zM536.1664 332.129698a531.491371 531.491371 0 0 0 38.089169 7.655484 328.809301 328.809301 0 0 0 54.717884 4.015991c18.511211 0 33.884928-2.698244 46.121152-8.094732 12.236224-5.019989 21.962453-12.361724 29.178688-21.962454 7.467234-9.22423 12.675473-20.456457 15.687466-33.571178 2.949244-13.177472 4.455241-27.609941 4.455241-43.485658V4.951893H536.1664zM536.1664 877.614289L43.328947 384.839586l44.426906-44.426905L536.1664 788.885978l448.410547-448.473297 44.426906 44.426905z"  horiz-adv-x="1103" />

    
    <glyph glyph-name="edit-delete-symbolic" unicode="&#58974;" d="M454.003371 800.00182C396.806696 800.00182 342.469854 783.362787 342.469854 783.362787L324.010927 777.747113v-87.510913A721.71805 721.71805 0 0 1 168.123988 644.010887L168.019994 592.013909H116.023016v-51.996977h51.996978l0.207988-467.9728c0-22.826673 2.079879-40.973618 7.799546-56.260729 5.771665-15.287111 16.17106-27.454404 29.274299-34.733981 26.15448-14.559154 58.236615-12.999244 101.550097-12.999245h294.510882c43.313482 0 75.395618-1.559909 101.550097 12.999245 13.103238 7.279577 23.39864 19.44687 29.118308 34.733981 5.719668 15.287111 7.955538 33.434057 7.955537 56.260729l-0.103994 415.975822h-51.996977L687.989771 72.044132c0-19.550864-2.079879-31.354178-4.575734-37.905796-1.767897-4.679728-4.055764-6.70761-5.719668-7.591559-8.995477-5.043707-31.770153-6.499622-76.331563-6.499622H306.851924c-44.56141 0-67.336086 1.455915-76.38356 6.499622a13.883193 13.883193 0 0 0-5.875658 7.591559v0.103994c-2.391861 6.343631-4.367746 18.094948-4.367747 37.801802v0.103994L220.016972 540.016932h571.966754V592.013909h-52.100972L739.986748 644.010887a720.418126 720.418126 0 0 1-155.990933 46.225313V776.655177L566.836813 782.842817S519.363572 800.00182 454.003371 800.00182z m0-51.996978c46.27731 0 67.076101-8.059532 77.995467-11.439335v-38.425766a730.557536 730.557536 0 0 1-77.891473 4.367746c-26.102483 0-52.152969-1.663903-78.09946-4.47174v38.165781C389.839101 739.841317 416.149571 748.004842 454.003371 748.004842zM324.010927 488.019954v-311.981866h51.996978V488.019954z m103.993955 0v-311.981866h51.996978V488.019954z m103.993956 0v-311.981866h51.996977V488.019954z"  horiz-adv-x="1024" />

    
    <glyph glyph-name="edit-find-symbolic" unicode="&#58975;" d="M417.294037 836.386566C219.973571 836.386566 59.613434 676.026429 59.613434 478.705963s160.360137-357.680603 357.680603-357.680603a354.580705 354.580705 0 0 1 218.423622 75.887901l170.673261-170.673261 63.36908 63.36908-170.673261 170.673261A354.640318 354.640318 0 0 1 774.97464 478.705963c0 197.320466-160.360137 357.680603-357.680603 357.680603z m0-59.613434a298.067169 298.067169 0 0 0 298.067169-298.067169 298.067169 298.067169 0 0 0-298.067169-298.067169 298.067169 298.067169 0 0 0-298.067169 298.067169 298.067169 298.067169 0 0 0 298.067169 298.067169z"  horiz-adv-x="1099" />

    
    <glyph glyph-name="media-playback-stop-symbolic" unicode="&#58976;" d="M147.692308 748.307692v-492.307692h492.307692V748.307692z"  horiz-adv-x="1331" />

    
    <glyph glyph-name="system-help-symbolic" unicode="&#58978;" d="M512 896a512 512 0 0 1-512-512 512 512 0 0 1 512-512 512 512 0 0 1 512 512 512 512 0 0 1-512 512z m0-64a448 448 0 0 0 448-448 448 448 0 0 0-448-448 448 448 0 0 0-448 448 448 448 0 0 0 448 448zM526.464 703.936c-28.416 0-55.296-3.264-80.64-9.792a312.32 312.32 0 0 1-62.272-23.744l19.2-53.248c36.736 18.624 74.368 28.8 112.896 28.8 32.384 0 58.048-8.512 75.776-26.24 17.408-16.768 26.24-39.232 26.24-65.92 0-16.576-3.84-32.064-11.52-46.272-6.912-13.696-16-26.816-27.136-39.232-10.88-12.16-22.4-24.256-34.56-36.352v-0.064h-0.128c-11.84-11.264-23.04-23.68-33.728-37.312l-0.064-0.128c-10.496-12.8-19.2-26.752-26.24-41.92-6.208-14.784-9.408-31.36-9.408-49.856 0-11.136 1.28-21.504 3.008-31.68h57.984c0 1.28-0.32 2.368-0.32 3.648v9.92c0 20.672 4.096 39.488 12.352 56.064 8.064 16.64 17.92 31.872 29.76 45.568l0.064 0.128c11.648 14.08 24.448 27.52 38.464 40.32 13.696 12.416 26.112 25.472 37.376 39.04 11.136 13.504 20.48 27.904 28.096 43.072 7.36 15.36 11.136 32.704 11.136 52.416 0 15.552-2.56 31.808-7.872 48.768v0.256a108.992 108.992 0 0 1-25.728 46.144 138.304 138.304 0 0 1-51.008 33.664H608l-0.128 0.128C587.328 699.2 560.192 704 526.4 704zM512 172.544c-17.28 0-29.952-5.248-39.616-16a54.656 54.656 0 0 1-14.656-38.272c0-14.848 4.8-27.264 14.72-38.272 9.6-10.752 22.208-16 39.552-16 17.28 0 29.952 5.248 39.68 16a54.72 54.72 0 0 1 14.592 38.272 54.656 54.656 0 0 1-14.656 38.272c-9.6 10.752-22.272 16-39.616 16z"  horiz-adv-x="1024" />

    
    <glyph glyph-name="dialog-information-symbolic" unicode="&#58979;" d="M512-128a512 512 0 0 0-512 512 512 512 0 0 0 512 512 512 512 0 0 0 512-512 512 512 0 0 0-512-512z m0 64a448 448 0 0 1 448 448 448 448 0 0 1-448 448 448 448 0 0 1-448-448 448 448 0 0 1 448-448zM512 656c-24.704 0-44.16-7.936-58.496-23.872A81.28 81.28 0 0 1 432 576c0-21.504 7.168-40.192 21.504-56.128 14.336-15.936 33.792-23.872 58.496-23.872s44.16 7.936 58.496 23.872A81.28 81.28 0 0 1 592 576a81.28 81.28 0 0 1-21.504 56.128C556.16 648.064 536.704 656 512 656zM448 448v-320h128V448z"  horiz-adv-x="1024" />

    
    <glyph glyph-name="bash-symbolic" unicode="&#58980;" d="M323.933867 785.066667c-69.777067-0.832-120.861867 1.664-162.5728-21.354667a104.277333 104.277333 0 0 1-46.481067-55.355733C105.728 684.0064 102.4 655.108267 102.4 618.666667v-388.266667c0-36.497067 3.328-65.3952 12.48-89.6896 9.096533-24.349867 25.570133-43.818667 46.481067-55.355733 41.710933-23.074133 92.795733-20.522667 162.5728-21.354667H768.3328c69.777067 0.776533 120.861867-1.664 162.628267 21.354667a104.277333 104.277333 0 0 1 46.481066 55.355733c9.096533 24.2944 12.424533 53.248 12.424534 89.6896V618.666667c0 36.497067-3.328 65.339733-12.48 89.6896a104.277333 104.277333 0 0 1-46.4256 55.355733c-41.7664 23.074133-92.8512 20.522667-162.628267 21.354667H324.155733z m161.019733-60.5696a19202.005333 19202.005333 0 0 0 290.978133-1.1648c47.701333-8.1536 119.808 18.914133 148.2624-37.051734 14.199467-162.184533 3.882667-326.254933 7.210667-489.160533-4.881067-21.077333-10.261333-63.3984-40.546133-62.621867-196.1856-13.034667-393.3696-5.9904-589.888-7.432533-43.5968 6.212267-110.933333-16.085333-133.341867 38.327467-9.429333 136.7808-4.936533 274.56-4.992 412.450133 6.766933 46.592-16.418133 114.4832 38.161067 139.2768 93.6832 11.758933 189.0304 4.3264 284.155733 7.377067zM295.534933 619.831467a27.733333 27.733333 0 0 1-15.1424-50.141867l81.3696-61.013333-81.3696-61.013334c-29.6192-22.186667 3.771733-66.56 33.390934-44.373333l110.933333 83.2a27.733333 27.733333 0 0 1 0 44.373333l-110.933333 83.2a27.844267 27.844267 0 0 1-18.248534 5.768534zM435.754667 397.7984v-55.466667h166.4v55.466667z"  horiz-adv-x="1260" />

    
    <glyph glyph-name="to-do-app-symbolic" unicode="&#58981;" d="M864.833742 750.908974L499.833784 385.909016l-218.394003 218.442872L229.590142 552.355643l270.292511-270.243643 416.898466 416.849597z"  horiz-adv-x="1604" />

    
    <glyph glyph-name="network-workgroup-symbolic" unicode="&#58983;" d="M512 896C229.504 896 0 666.496 0 384s229.504-512 512-512 512 229.504 512 512-229.504 512-512 512z m-2.56-64.128l-1.28-39.488 58.56-8.768 39.552 38.272a443.648 443.648 0 0 0 110.848-40l-13.76-22.144 39.04-34.56-39.04-32.64 15.232-39.04 86.784 41.216 54.272-41.216 2.816 8.896c11.776-14.848 22.4-30.528 32.256-46.72l-54.72-9.92-32.512 34.752-99.712-6.528-60.8-95.488 41.28-101.888 134.464-41.216 26.048-158.4 32.448-82.368 22.912 12.992A448.128 448.128 0 0 0 512-64c-247.168 0-448 200.832-448 448 0 51.968 9.28 101.696 25.6 148.096l2.176-8.704 69.376-19.52 91.072-67.2 2.176-97.664 58.624-80.256 34.56-216.96 62.912-39.04-17.28 80.256 106.24 147.52 45.568 99.712-106.24 99.84-115.008 54.144-47.68-28.096-56.448 84.608-32.512-15.232-28.16 47.744 49.92 25.984 47.616-28.16 82.496 101.952L458.24 746.752l-32.512 60.8-97.6-34.816-12.16 13.504a444.608 444.608 0 0 0 193.536 45.632z"  horiz-adv-x="1024" />

    
    <glyph glyph-name="format-justify-left-symbolic" unicode="&#58985;" d="M96 836.571429h832v-59.428572H96zM96 658.285714h594.285714v-59.428571H96zM96 301.714286h594.285714v-59.428572H96zM96 123.428571h832v-59.428571H96zM96 480h832v-59.428571H96z"  horiz-adv-x="1181" />

    
    <glyph glyph-name="format-justify-right-symbolic" unicode="&#58986;" d="M96 836.571429h832v-59.428572H96zM333.714286 658.285714h594.285714v-59.428571H333.714286zM333.714286 301.714286h594.285714v-59.428572H333.714286zM96 123.428571h832v-59.428571H96zM96 480h832v-59.428571H96z"  horiz-adv-x="1181" />

    
    <glyph glyph-name="format-justify-fill-symbolic" unicode="&#58987;" d="M96 836.571429h832v-59.428572H96zM96 658.285714h832v-59.428571H96zM96 301.714286h832v-59.428572H96zM96 123.428571h832v-59.428571H96zM96 480h832v-59.428571H96z"  horiz-adv-x="1181" />

    
    <glyph glyph-name="format-justify-center-symbolic" unicode="&#58988;" d="M96 836.571429h832v-59.428572H96zM214.857143 658.285714h594.285714v-59.428571H214.857143zM214.857143 301.714286h594.285714v-59.428572H214.857143zM96 123.428571h832v-59.428571H96zM96 480h832v-59.428571H96z"  horiz-adv-x="1181" />

    
    <glyph glyph-name="edit-copy-symbolic" unicode="&#58989;" d="M101.54496 760.321707V195.157333H153.856V708.010667h410.282667v-51.285334H205.346475v-564.138666H717.994667V656.725333h-102.570667V708.010667h0.615424V760.321707h-437.463893zM256.734379 605.44H666.709333v-461.568H256.734379zM307.712 554.154667v-51.285334h308.737707V554.154667z m0-102.570667v-51.285333h308.737707V451.584z m-0.410283-102.570667v-51.285333H461.568v51.285333z"  horiz-adv-x="1101" />

    


  </font>
</defs>
</svg>
